<svg xmlns="http://www.w3.org/2000/svg" width="22" height="22" fill="none" viewBox="0 0 22 22"><path fill="#E5E5E5" d="M11.6965 18.2783C10.7433 19.172 9.47985 19.6599 8.1734 19.6388C6.86695 19.6178 5.6199 19.0894 4.69598 18.1655C3.77206 17.2416 3.24371 15.9945 3.22265 14.6881C3.2016 13.3816 3.68949 12.1182 4.58316 11.165L12.6132 3.14416C13.0905 2.67055 13.6973 2.34866 14.3571 2.21895C15.0169 2.08924 15.7003 2.1575 16.3214 2.41516C16.9426 2.67282 17.4736 3.10837 17.8479 3.66703C18.2221 4.2257 18.4229 4.88255 18.4248 5.55499C18.4243 6.00216 18.3349 6.44477 18.1618 6.85707C17.9887 7.26938 17.7354 7.64315 17.4165 7.95666L9.78066 15.5833C9.54193 15.7736 9.24167 15.8697 8.93682 15.8533C8.63197 15.837 8.34372 15.7093 8.12672 15.4946C7.90972 15.2798 7.77906 14.9929 7.75951 14.6883C7.73996 14.3836 7.83288 14.0824 8.02066 13.8417L15.6657 6.19666L14.364 4.90416L6.71899 12.5492C6.16727 13.1317 5.86468 13.9066 5.87559 14.7089C5.8865 15.5112 6.21006 16.2775 6.77741 16.8449C7.34477 17.4123 8.11113 17.7358 8.91342 17.7467C9.71571 17.7576 10.4906 17.455 11.0732 16.9033L18.7273 9.25833C19.7119 8.27492 20.2656 6.94066 20.2664 5.54907C20.2673 4.15747 19.7153 2.82253 18.7319 1.83791C17.7485 0.853293 16.4142 0.299658 15.0226 0.298799C13.6311 0.297939 12.2961 0.849925 11.3115 1.83333L3.28149 9.87249C2.03967 11.169 1.35508 12.9004 1.37442 14.6956C1.39377 16.4908 2.1155 18.207 3.38498 19.4765C4.65446 20.746 6.37067 21.4677 8.16588 21.4871C9.96108 21.5064 11.6925 20.8218 12.989 19.58L20.249 12.3108L18.9565 11L11.6965 18.2783Z"/></svg>